<svg xmlns="http://www.w3.org/2000/svg" xmlns:xlink="http://www.w3.org/1999/xlink" xmlns:lucid="lucid" width="1226.33" height="354.33"><g transform="translate(-179.5 200.5)" lucid:page-tab-id="0_0"><path d="M0-500h1500V500H0z" fill="#fff"/><path d="M800-90c0 49.7-134.32 90-300 90-165.7 0-300-40.3-300-90s134.3-90 300-90c165.68 0 300 40.3 300 90z" fill-opacity="0"/><path d="M798.25-80.24l-.36.97-.56 1.3-.63 1.34-.7 1.4-.84 1.42-.95 1.5-.6.85m-3.05 3.94l-.1.13-1.66 1.83-1.9 1.94-2.22 2.07-1.2 1.03m-3.85 3.15l-.53.42-3.54 2.57-4.1 2.72m-4.26 2.6l-.83.48-6 3.3-1.94.96m-4.46 2.2l-.83.42-8.26 3.67m-4.63 1.85l-6.64 2.62-2.66.93m-4.7 1.64l-5.8 2-3.68 1.1M712-26.4l-7.7 2.3-1.88.5m-4.83 1.22l-9.66 2.47m-4.85 1.17l-9.76 2.06m-4.87 1.04L660.72-14l-2.02.35m-4.92.83l-9.83 1.65m-4.9.83l-6.77 1.14-3.1.4m-4.94.6l-9.9 1.26m-4.93.62l-9.88 1.24m-4.97.43l-9.93.83m-4.97.42l-9.93.83m-4.97.4l-2.92.26-7.03.28m-4.98.2l-9.96.42m-4.98.2l-9.96.42m-4.98.17l-9.97.1m-5 .05L500 0 495-.1m-5-.1l-9.95-.2m-5-.12l-9.95-.2m-5-.1l-2-.05-7.94-.5m-4.97-.3l-9.94-.63m-4.98-.3l-9.94-.64m-4.97-.46l-9.9-1.04m-4.97-.5l-9.9-1.05m-4.97-.5l-1.97-.22-7.9-1.16m-4.93-.73l-9.87-1.46m-4.93-.72l-3.15-.47-6.66-1.26m-4.9-.94l-9.8-1.87m-4.9-.94l-9.7-2.27m-4.85-1.15l-7.04-1.64-2.64-.73m-4.8-1.34l-9.6-2.67m-4.76-1.5l-9.5-3.08m-4.67-1.7l-8.33-3.08-1-.42m-4.6-1.93l-4.1-1.72-5-2.34m-4.48-2.2l-5.08-2.65-3.67-2.12m-4.24-2.6L226.44-53l-3.85-2.67-2.22-1.68m-3.88-3.14l-2.33-2.08-2.04-2-1.77-1.9-.9-1.04m-3.08-3.92l-.06-.1-1.02-1.53-.9-1.46-.76-1.4-.68-1.38-.6-1.33-.5-1.28-.1-.34m-1.3-4.8l-.16-.9-.15-1.17-.1-1.17-.04-1.15V-90l.02-1.16.08-1.15.12-1.17.17-1.17.05-.32m1.3-4.8l.36-.97.56-1.3.63-1.34.7-1.4.84-1.42.95-1.5.6-.85m3.04-3.94l.12-.13 1.65-1.83 1.92-1.94 2.2-2.07 1.2-1.03m3.85-3.15l.53-.42 3.54-2.57 4.1-2.72m4.27-2.58l.83-.5 6-3.3 1.94-.96m4.46-2.2l.83-.42 8.26-3.67m4.63-1.85l6.64-2.62 2.66-.93m4.7-1.63l5.8-2 3.68-1.12m4.77-1.44l7.7-2.3 1.88-.5m4.83-1.22l9.66-2.47m4.85-1.17l9.76-2.06m4.87-1.04l7.75-1.64 2.02-.35m4.92-.83l9.83-1.65m4.9-.83l6.78-1.14 3.08-.4m4.96-.6l9.9-1.26m4.93-.62l9.88-1.24m4.97-.43l9.93-.83m4.97-.42l9.93-.83m4.97-.4l2.92-.26 7.03-.28m4.98-.2l9.96-.42m4.98-.2l9.96-.42m4.98-.17l9.97-.1m5-.05L500-180l4.98.1m5 .1l9.95.2m5 .12l9.95.2m5 .1l2 .05 7.94.5m4.97.3l9.94.63m4.98.3l9.94.64m4.97.46l9.9 1.04m4.97.5l9.9 1.05m4.97.5l1.97.22 7.9 1.16m4.93.73l9.87 1.46m4.93.72l3.15.47 6.66 1.26m4.9.94l9.8 1.87m4.9.94l9.7 2.27m4.85 1.15l7.04 1.65 2.64.73m4.8 1.34l9.6 2.67m4.76 1.5l9.5 3.08m4.67 1.7l8.33 3.08 1 .42m4.6 1.93l4.1 1.72 5 2.34m4.48 2.2l5.08 2.65 3.67 2.12m4.24 2.6l2.12 1.33 3.85 2.67 2.22 1.68m3.88 3.14l2.33 2.08 2.04 2 1.77 1.9.9 1.04m3.08 3.92l.06.1 1.02 1.53.9 1.46.76 1.4.68 1.38.6 1.33.5 1.28.1.34m1.3 4.8l.16.9.15 1.17.1 1.17.04 1.15v.58l-.02 1.16-.08 1.15-.12 1.17-.17 1.17-.05.32" stroke="#54c45e" fill="none"/><use xlink:href="#a" transform="matrix(1,0,0,1,205,-175) translate(192.62845679012344 17.77777777777778)"/><use xlink:href="#b" transform="matrix(1,0,0,1,205,-175) translate(296.2087037037037 17.77777777777778)"/><path d="M1220-174a6 6 0 0 1 6-6h153.33a6 6 0 0 1 6 6v61.33a6 6 0 0 1-6 6H1226a6 6 0 0 1-6-6z" stroke="#3a414a" fill="#fff"/><use xlink:href="#c" transform="matrix(1,0,0,1,1225,-175) translate(50.90123456790124 37.77777777777778)"/><path d="M425.33-84.67c0 30.56-37 55.34-82.66 55.34S260-54.1 260-84.67c0-30.56 37-55.33 82.67-55.33 45.65 0 82.66 24.77 82.66 55.33z" stroke="#3a414a" fill-opacity="0"/><use xlink:href="#d" transform="matrix(1,0,0,1,265,-135) translate(30.53086419753086 55.65277777777778)"/><path d="M465.66-84.2h-39.33v-.94h39.33zm132.93 0H540.6v-.94h57.97z" stroke="#3a414a" stroke-width=".05" fill="#3a414a"/><path d="M426.35-84.2h-.53v-.94h.53z" fill="#3a414a"/><path stroke="#3a414a" stroke-width=".05" fill="#3a414a"/><path d="M599.45-84.67l-17.9 10.6-.5-.83 16.53-9.77-16.52-9.77.5-.82z" stroke="#3a414a" stroke-width=".05" fill="#3a414a"/><use xlink:href="#e" transform="matrix(1,0,0,1,465.65717789332155,-95.33333333333336) translate(0 14.222222222222223)"/><path d="M765.33-84.67c0 30.56-37 55.34-82.66 55.34S600-54.1 600-84.67c0-30.56 37-55.33 82.67-55.33 45.65 0 82.66 24.77 82.66 55.33z" stroke="#3a414a" fill-opacity="0"/><use xlink:href="#f" transform="matrix(1,0,0,1,605,-135) translate(39.295123456790115 43.02777777777778)"/><use xlink:href="#g" transform="matrix(1,0,0,1,605,-135) translate(52.90623456790123 69.69444444444446)"/><path d="M1105.33-84.67c0 30.56-37 55.34-82.66 55.34S940-54.1 940-84.67c0-30.56 37-55.33 82.67-55.33 45.65 0 82.66 24.77 82.66 55.33z" stroke="#3a414a" fill-opacity="0"/><use xlink:href="#f" transform="matrix(1,0,0,1,945,-135) translate(39.79512345679012 27.24652777777778)"/><use xlink:href="#h" transform="matrix(1,0,0,1,945,-135) translate(53.401234567901234 53.91319444444445)"/><use xlink:href="#i" transform="matrix(1,0,0,1,945,-135) translate(61.33833333333334 80.57986111111111)"/><path d="M802.3-84.2h-35.97v-.94h35.97zm136.3 0h-59.36v-.94h59.35z" stroke="#3a414a" stroke-width=".05" fill="#3a414a"/><path d="M766.35-84.2h-.53v-.94h.53z" fill="#3a414a"/><path stroke="#3a414a" stroke-width=".05" fill="#3a414a"/><path d="M939.45-84.67l-17.9 10.6-.5-.83 16.53-9.77-16.52-9.77.5-.82z" stroke="#3a414a" stroke-width=".05" fill="#3a414a"/><use xlink:href="#j" transform="matrix(1,0,0,1,802.3014294427107,-106.00000000000003) translate(0 14.222222222222223)"/><use xlink:href="#k" transform="matrix(1,0,0,1,802.3014294427107,-106.00000000000003) translate(18.71604938271605 14.222222222222223)"/><use xlink:href="#l" transform="matrix(1,0,0,1,802.3014294427107,-106.00000000000003) translate(0 35.55555555555556)"/><use xlink:href="#m" transform="matrix(1,0,0,1,802.3014294427107,-106.00000000000003) translate(40.39506172839507 35.55555555555556)"/><path d="M1125.23-124.3l-35.04 6.88-.2-.93 35.23-6.93zm93.47-18.4l-49.07 9.66v-.97l48.9-9.62z" stroke="#3a414a" stroke-width=".05" fill="#3a414a"/><path d="M1090.2-117.42l-.16.03-.86-.8.84-.16z" fill="#3a414a"/><path stroke="#3a414a" stroke-width=".05" fill="#3a414a"/><path d="M1219.45-143.32l-15.52 13.84-.64-.7 14.32-12.78-18.1-6.4.32-.9z" stroke="#3a414a" stroke-width=".05" fill="#3a414a"/><use xlink:href="#n" transform="matrix(1,0,0,1,1125.2313677405816,-139.82723559502705) translate(0 14.222222222222223)"/><path d="M1220-34a6 6 0 0 1 6-6h153.33a6 6 0 0 1 6 6v61.33a6 6 0 0 1-6 6H1226a6 6 0 0 1-6-6z" stroke="#3a414a" fill="#fff"/><use xlink:href="#c" transform="matrix(1,0,0,1,1225,-35) translate(50.90123456790124 37.77777777777778)"/><path d="M1218.75-4.04l-.25.92-67.66-18.98v-1zM1131.2-28.6v1l-52.8-14.82.26-.9z" stroke="#3a414a" stroke-width=".05" fill="#3a414a"/><path d="M1078.68-43.33l-.26.9-.95-.25.76-.43.37-.25z" fill="#3a414a"/><path stroke="#3a414a" stroke-width=".05" fill="#3a414a"/><path d="M1219.45-3.35L1199.35 2l-.24-.9 18.56-4.95-13.27-13.87.67-.66z" stroke="#3a414a" stroke-width=".05" fill="#3a414a"/><use xlink:href="#o" transform="matrix(1,0,0,1,1131.1893576166037,-36.01625665674407) translate(0 14.222222222222223)"/><path d="M600 66a6 6 0 0 1 6-6h153.33a6 6 0 0 1 6 6v61.33a6 6 0 0 1-6 6H606a6 6 0 0 1-6-6z" stroke="#3a414a" fill="#fff"/><use xlink:href="#c" transform="matrix(1,0,0,1,605,65) translate(50.90123456790124 37.77777777777778)"/><path d="M683.14 58.6h-.95V21.14h.94zm0-58.78h-.95v-28.15h.94z" stroke="#3a414a" stroke-width=".05" fill="#3a414a"/><path d="M682.67-28.83l.47-.02v.53h-.95v-.53z" fill="#3a414a"/><path stroke="#3a414a" stroke-width=".05" fill="#3a414a"/><path d="M682.67 57.59l9.77-16.54.82.48-10.6 17.9-10.58-17.9.8-.48z" stroke="#3a414a" stroke-width=".05" fill="#3a414a"/><g><use xlink:href="#p" transform="matrix(1,0,0,1,661.4567901234568,-0.17950354531570056) translate(0 14.222222222222223)"/></g><path d="M1160-84.67c0 49.7-134.32 90-300 90s-300-40.3-300-90 134.32-90 300-90 300 40.3 300 90z" fill-opacity="0"/><path d="M1158.25-74.9l-.36.96-.56 1.3-.63 1.34-.7 1.4-.84 1.43-.96 1.5-.6.85m-3.04 3.94l-.12.14-1.65 1.83-1.9 1.93-2.22 2.08-1.2 1.03m-3.85 3.16l-.53.4-3.54 2.57-4.1 2.73m-4.27 2.58l-.83.5-6 3.3-1.94.95m-4.46 2.2l-.83.42-8.27 3.68m-4.62 1.85l-6.64 2.63-2.66.93m-4.7 1.64l-5.8 2-3.68 1.12M1072-21.1l-7.7 2.32-1.88.48m-4.83 1.24l-9.66 2.47m-4.85 1.17l-9.76 2.07m-4.87 1.03l-7.75 1.64-2.02.34m-4.92.83l-9.83 1.67m-4.9.83l-6.77 1.13-3.1.4m-4.94.62l-9.9 1.24m-4.93.6L959.53.27m-4.97.43l-9.93.82m-4.97.4l-9.93.84m-4.97.42l-2.92.24-7.03.3m-4.98.2l-9.96.4m-4.98.22l-9.96.42m-4.98.17l-9.97.1m-5 .05l-4.97.05-4.98-.1m-5-.1l-9.95-.2m-5-.1l-9.95-.22m-5-.1l-2-.04-7.94-.5m-4.97-.3l-9.94-.63m-4.98-.3l-9.94-.63m-4.97-.46L765.47.6M760.5.08l-9.9-1.04m-4.97-.52l-1.97-.2-7.9-1.17m-4.93-.72l-9.87-1.45m-4.93-.73l-3.15-.46-6.66-1.28m-4.9-.93l-9.8-1.87m-4.9-.94l-9.7-2.28m-4.85-1.14l-7.04-1.64-2.64-.74m-4.8-1.33L648-21m-4.76-1.5l-9.5-3.1m-4.67-1.67l-8.33-3.1-1-.4m-4.6-1.94l-4.1-1.74-5-2.34m-4.48-2.18l-5.08-2.66-3.67-2.1m-4.24-2.6l-2.12-1.35-3.85-2.67-2.22-1.68m-3.88-3.13l-2.33-2.1-2.04-2-1.77-1.9-.9-1.04m-3.08-3.9l-.06-.1-1.02-1.53-.9-1.47-.76-1.4-.68-1.37-.6-1.32-.5-1.28-.1-.32m-1.3-4.8l-.16-.9-.15-1.18-.1-1.16-.04-1.15v-.57l.02-1.15.08-1.16.12-1.16.17-1.16.05-.32m1.3-4.8l.36-.98.56-1.3.63-1.34.7-1.38.84-1.44.95-1.5.6-.86m3.05-3.93l.1-.15 1.66-1.83 1.9-1.94 2.22-2.07 1.2-1.03m3.85-3.15l.53-.42 3.54-2.57 4.1-2.73m4.26-2.58l.83-.5 6-3.3 1.94-.96m4.46-2.22l.83-.4 8.26-3.68m4.63-1.85l6.64-2.64 2.66-.93m4.7-1.63l5.8-2 3.68-1.12m4.77-1.44l7.7-2.3 1.88-.5m4.83-1.23l9.66-2.46m4.85-1.18l9.76-2.06m4.87-1.03l7.75-1.65 2.02-.34m4.92-.82l9.83-1.66m4.9-.83l6.77-1.14 3.1-.4m4.94-.6l9.9-1.25m4.93-.63l9.88-1.24m4.97-.42l9.93-.83m4.97-.4l9.93-.84m4.97-.4l2.92-.25 7.03-.3m4.98-.2l9.96-.42m4.98-.2l9.96-.42m4.98-.16l9.97-.1m5-.06l4.97-.05 4.98.1m5 .1l9.95.22m5 .1l9.95.2m5 .1l2 .05 7.94.5m4.97.3l9.94.63m4.98.32l9.94.62m4.97.46l9.9 1.04m4.97.52l9.9 1.03m4.97.52l1.97.2 7.9 1.16m4.93.74l9.87 1.45m4.93.72l3.15.46 6.66 1.27m4.9.93l9.8 1.86m4.9.94l9.7 2.27m4.85 1.13l7.04 1.65 2.64.73m4.8 1.34l9.6 2.68m4.76 1.5l9.48 3.07m4.7 1.7l8.32 3.08 1 .42m4.6 1.93l4.1 1.72 5 2.35m4.48 2.18l5.08 2.65 3.67 2.12m4.24 2.6l2.12 1.33 3.85 2.68 2.22 1.7m3.88 3.12l2.33 2.1 2.04 2 1.77 1.9.9 1.03m3.08 3.93l.06.1 1.02 1.52.9 1.47.76 1.4.68 1.37.6 1.32.5 1.28.1.33m1.3 4.8l.16.9.15 1.17.1 1.16.04 1.16v.57l-.02 1.16-.08 1.14-.12 1.16-.17 1.17-.05.32" stroke="#54c45e" fill="none"/><g><use xlink:href="#q" transform="matrix(1,0,0,1,565,-169.66666666666669) translate(210.46796296296299 17.77777777777778)"/><use xlink:href="#b" transform="matrix(1,0,0,1,565,-169.66666666666669) translate(278.3691975308642 17.77777777777778)"/></g><defs><path fill="#54c45e" d="M194 0L95-120 63-95V0H30v-248h33v124l119-124h40L117-140 236 0h-42" id="r"/><path fill="#54c45e" d="M100-194c63 0 86 42 84 106H49c0 40 14 67 53 68 26 1 43-12 49-29l28 8c-11 28-37 45-77 45C44 4 14-33 15-96c1-61 26-98 85-98zm52 81c6-60-76-77-97-28-3 7-6 17-6 28h103" id="s"/><path fill="#54c45e" d="M179-190L93 31C79 59 56 82 12 73V49c39 6 53-20 64-50L1-190h34L92-34l54-156h33" id="t"/><path fill="#54c45e" d="M206 0h-36l-40-164L89 0H53L-1-190h32L70-26l43-164h34l41 164 42-164h31" id="u"/><path fill="#54c45e" d="M100-194c62-1 85 37 85 99 1 63-27 99-86 99S16-35 15-95c0-66 28-99 85-99zM99-20c44 1 53-31 53-75 0-43-8-75-51-75s-53 32-53 75 10 74 51 75" id="v"/><path fill="#54c45e" d="M114-163C36-179 61-72 57 0H25l-1-190h30c1 12-1 29 2 39 6-27 23-49 58-41v29" id="w"/><path fill="#54c45e" d="M85-194c31 0 48 13 60 33l-1-100h32l1 261h-30c-2-10 0-23-3-31C134-8 116 4 85 4 32 4 16-35 15-94c0-66 23-100 70-100zm9 24c-40 0-46 34-46 75 0 40 6 74 45 74 42 0 51-32 51-76 0-42-9-74-50-73" id="x"/><path fill="#54c45e" d="M135-143c-3-34-86-38-87 0 15 53 115 12 119 90S17 21 10-45l28-5c4 36 97 45 98 0-10-56-113-15-118-90-4-57 82-63 122-42 12 7 21 19 24 35" id="y"/><g id="a"><use transform="matrix(0.06172839506172839,0,0,0.06172839506172839,0,0)" xlink:href="#r"/><use transform="matrix(0.06172839506172839,0,0,0.06172839506172839,14.814814814814813,0)" xlink:href="#s"/><use transform="matrix(0.06172839506172839,0,0,0.06172839506172839,27.160493827160494,0)" xlink:href="#t"/><use transform="matrix(0.06172839506172839,0,0,0.06172839506172839,38.27160493827161,0)" xlink:href="#u"/><use transform="matrix(0.06172839506172839,0,0,0.06172839506172839,54.25925925925926,0)" xlink:href="#v"/><use transform="matrix(0.06172839506172839,0,0,0.06172839506172839,66.60493827160494,0)" xlink:href="#w"/><use transform="matrix(0.06172839506172839,0,0,0.06172839506172839,73.95061728395062,0)" xlink:href="#x"/><use transform="matrix(0.06172839506172839,0,0,0.06172839506172839,86.2962962962963,0)" xlink:href="#y"/></g><path fill="#54c45e" d="M185-189c-5-48-123-54-124 2 14 75 158 14 163 119 3 78-121 87-175 55-17-10-28-26-33-46l33-7c5 56 141 63 141-1 0-78-155-14-162-118-5-82 145-84 179-34 5 7 8 16 11 25" id="z"/><path fill="#54c45e" d="M59-47c-2 24 18 29 38 22v24C64 9 27 4 27-40v-127H5v-23h24l9-43h21v43h35v23H59v120" id="A"/><path fill="#54c45e" d="M141-36C126-15 110 5 73 4 37 3 15-17 15-53c-1-64 63-63 125-63 3-35-9-54-41-54-24 1-41 7-42 31l-33-3c5-37 33-52 76-52 45 0 72 20 72 64v82c-1 20 7 32 28 27v20c-31 9-61-2-59-35zM48-53c0 20 12 33 32 33 41-3 63-29 60-74-43 2-92-5-92 41" id="B"/><path fill="#54c45e" d="M210-169c-67 3-38 105-44 169h-31v-121c0-29-5-50-35-48C34-165 62-65 56 0H25l-1-190h30c1 10-1 24 2 32 10-44 99-50 107 0 11-21 27-35 58-36 85-2 47 119 55 194h-31v-121c0-29-5-49-35-48" id="C"/><path fill="#54c45e" d="M117-194c89-4 53 116 60 194h-32v-121c0-31-8-49-39-48C34-167 62-67 57 0H25l-1-190h30c1 10-1 24 2 32 11-22 29-35 61-36" id="D"/><g id="b"><use transform="matrix(0.06172839506172839,0,0,0.06172839506172839,0,0)" xlink:href="#z"/><use transform="matrix(0.06172839506172839,0,0,0.06172839506172839,14.814814814814813,0)" xlink:href="#A"/><use transform="matrix(0.06172839506172839,0,0,0.06172839506172839,20.98765432098765,0)" xlink:href="#B"/><use transform="matrix(0.06172839506172839,0,0,0.06172839506172839,33.33333333333333,0)" xlink:href="#A"/><use transform="matrix(0.06172839506172839,0,0,0.06172839506172839,39.50617283950617,0)" xlink:href="#s"/><use transform="matrix(0.06172839506172839,0,0,0.06172839506172839,51.85185185185185,0)" xlink:href="#C"/><use transform="matrix(0.06172839506172839,0,0,0.06172839506172839,70.30864197530863,0)" xlink:href="#s"/><use transform="matrix(0.06172839506172839,0,0,0.06172839506172839,82.65432098765432,0)" xlink:href="#D"/><use transform="matrix(0.06172839506172839,0,0,0.06172839506172839,95,0)" xlink:href="#A"/></g><path fill="#3a414a" d="M135-143c-3-34-86-38-87 0 15 53 115 12 119 90S17 21 10-45l28-5c4 36 97 45 98 0-10-56-113-15-118-90-4-57 82-63 122-42 12 7 21 19 24 35" id="E"/><path fill="#3a414a" d="M59-47c-2 24 18 29 38 22v24C64 9 27 4 27-40v-127H5v-23h24l9-43h21v43h35v23H59v120" id="F"/><path fill="#3a414a" d="M114-163C36-179 61-72 57 0H25l-1-190h30c1 12-1 29 2 39 6-27 23-49 58-41v29" id="G"/><path fill="#3a414a" d="M24-231v-30h32v30H24zM24 0v-190h32V0H24" id="H"/><path fill="#3a414a" d="M117-194c89-4 53 116 60 194h-32v-121c0-31-8-49-39-48C34-167 62-67 57 0H25l-1-190h30c1 10-1 24 2 32 11-22 29-35 61-36" id="I"/><path fill="#3a414a" d="M177-190C167-65 218 103 67 71c-23-6-38-20-44-43l32-5c15 47 100 32 89-28v-30C133-14 115 1 83 1 29 1 15-40 15-95c0-56 16-97 71-98 29-1 48 16 59 35 1-10 0-23 2-32h30zM94-22c36 0 50-32 50-73 0-42-14-75-50-75-39 0-46 34-46 75s6 73 46 73" id="J"/><g id="c"><use transform="matrix(0.06172839506172839,0,0,0.06172839506172839,0,0)" xlink:href="#E"/><use transform="matrix(0.06172839506172839,0,0,0.06172839506172839,11.11111111111111,0)" xlink:href="#F"/><use transform="matrix(0.06172839506172839,0,0,0.06172839506172839,17.28395061728395,0)" xlink:href="#G"/><use transform="matrix(0.06172839506172839,0,0,0.06172839506172839,24.629629629629626,0)" xlink:href="#H"/><use transform="matrix(0.06172839506172839,0,0,0.06172839506172839,29.50617283950617,0)" xlink:href="#I"/><use transform="matrix(0.06172839506172839,0,0,0.06172839506172839,41.85185185185185,0)" xlink:href="#J"/></g><path fill="#3a414a" d="M233-177c-1 41-23 64-60 70L243 0h-38l-65-103H63V0H30v-248c88 3 205-21 203 71zM63-129c60-2 137 13 137-47 0-61-80-42-137-45v92" id="K"/><path fill="#3a414a" d="M100-194c63 0 86 42 84 106H49c0 40 14 67 53 68 26 1 43-12 49-29l28 8c-11 28-37 45-77 45C44 4 14-33 15-96c1-61 26-98 85-98zm52 81c6-60-76-77-97-28-3 7-6 17-6 28h103" id="L"/><path fill="#3a414a" d="M100-194c62-1 85 37 85 99 1 63-27 99-86 99S16-35 15-95c0-66 28-99 85-99zM99-20c44 1 53-31 53-75 0-43-8-75-51-75s-53 32-53 75 10 74 51 75" id="M"/><path fill="#3a414a" d="M84 4C-5 8 30-112 23-190h32v120c0 31 7 50 39 49 72-2 45-101 50-169h31l1 190h-30c-1-10 1-25-2-33-11 22-28 36-60 37" id="N"/><path fill="#3a414a" d="M96-169c-40 0-48 33-48 73s9 75 48 75c24 0 41-14 43-38l32 2c-6 37-31 61-74 61-59 0-76-41-82-99-10-93 101-131 147-64 4 7 5 14 7 22l-32 3c-4-21-16-35-41-35" id="O"/><g id="d"><use transform="matrix(0.06172839506172839,0,0,0.06172839506172839,0,0)" xlink:href="#K"/><use transform="matrix(0.06172839506172839,0,0,0.06172839506172839,15.987654320987653,0)" xlink:href="#L"/><use transform="matrix(0.06172839506172839,0,0,0.06172839506172839,28.333333333333332,0)" xlink:href="#E"/><use transform="matrix(0.06172839506172839,0,0,0.06172839506172839,39.44444444444444,0)" xlink:href="#M"/><use transform="matrix(0.06172839506172839,0,0,0.06172839506172839,51.79012345679012,0)" xlink:href="#N"/><use transform="matrix(0.06172839506172839,0,0,0.06172839506172839,64.1358024691358,0)" xlink:href="#G"/><use transform="matrix(0.06172839506172839,0,0,0.06172839506172839,71.48148148148148,0)" xlink:href="#O"/><use transform="matrix(0.06172839506172839,0,0,0.06172839506172839,82.5925925925926,0)" xlink:href="#L"/></g><path fill="#333" d="M143 0L79-87 56-68V0H24v-261h32v163l83-92h37l-77 82L181 0h-38" id="P"/><path fill="#333" d="M100-194c63 0 86 42 84 106H49c0 40 14 67 53 68 26 1 43-12 49-29l28 8c-11 28-37 45-77 45C44 4 14-33 15-96c1-61 26-98 85-98zm52 81c6-60-76-77-97-28-3 7-6 17-6 28h103" id="Q"/><path fill="#333" d="M179-190L93 31C79 59 56 82 12 73V49c39 6 53-20 64-50L1-190h34L92-34l54-156h33" id="R"/><path fill="#333" d="M206 0h-36l-40-164L89 0H53L-1-190h32L70-26l43-164h34l41 164 42-164h31" id="S"/><path fill="#333" d="M100-194c62-1 85 37 85 99 1 63-27 99-86 99S16-35 15-95c0-66 28-99 85-99zM99-20c44 1 53-31 53-75 0-43-8-75-51-75s-53 32-53 75 10 74 51 75" id="T"/><path fill="#333" d="M114-163C36-179 61-72 57 0H25l-1-190h30c1 12-1 29 2 39 6-27 23-49 58-41v29" id="U"/><path fill="#333" d="M85-194c31 0 48 13 60 33l-1-100h32l1 261h-30c-2-10 0-23-3-31C134-8 116 4 85 4 32 4 16-35 15-94c0-66 23-100 70-100zm9 24c-40 0-46 34-46 75 0 40 6 74 45 74 42 0 51-32 51-76 0-42-9-74-50-73" id="V"/><path fill="#333" d="M135-143c-3-34-86-38-87 0 15 53 115 12 119 90S17 21 10-45l28-5c4 36 97 45 98 0-10-56-113-15-118-90-4-57 82-63 122-42 12 7 21 19 24 35" id="W"/><g id="e"><use transform="matrix(0.04938271604938272,0,0,0.04938271604938272,0,0)" xlink:href="#P"/><use transform="matrix(0.04938271604938272,0,0,0.04938271604938272,8.88888888888889,0)" xlink:href="#Q"/><use transform="matrix(0.04938271604938272,0,0,0.04938271604938272,18.765432098765434,0)" xlink:href="#R"/><use transform="matrix(0.04938271604938272,0,0,0.04938271604938272,27.654320987654323,0)" xlink:href="#S"/><use transform="matrix(0.04938271604938272,0,0,0.04938271604938272,40.44444444444445,0)" xlink:href="#T"/><use transform="matrix(0.04938271604938272,0,0,0.04938271604938272,50.320987654320994,0)" xlink:href="#U"/><use transform="matrix(0.04938271604938272,0,0,0.04938271604938272,56.19753086419754,0)" xlink:href="#V"/><use transform="matrix(0.04938271604938272,0,0,0.04938271604938272,66.07407407407408,0)" xlink:href="#W"/></g><path fill="#3a414a" d="M30-248c118-7 216 8 213 122C240-48 200 0 122 0H30v-248zM63-27c89 8 146-16 146-99s-60-101-146-95v194" id="X"/><path fill="#3a414a" d="M101-234c-31-9-42 10-38 44h38v23H63V0H32v-167H5v-23h27c-7-52 17-82 69-68v24" id="Y"/><path fill="#3a414a" d="M85-194c31 0 48 13 60 33l-1-100h32l1 261h-30c-2-10 0-23-3-31C134-8 116 4 85 4 32 4 16-35 15-94c0-66 23-100 70-100zm9 24c-40 0-46 34-46 75 0 40 6 74 45 74 42 0 51-32 51-76 0-42-9-74-50-73" id="Z"/><g id="f"><use transform="matrix(0.06172839506172839,0,0,0.06172839506172839,0,0)" xlink:href="#X"/><use transform="matrix(0.06172839506172839,0,0,0.06172839506172839,15.987654320987653,0)" xlink:href="#L"/><use transform="matrix(0.06172839506172839,0,0,0.06172839506172839,28.333333333333332,0)" xlink:href="#Y"/><use transform="matrix(0.06172839506172839,0,0,0.06172839506172839,34.50617283950617,0)" xlink:href="#H"/><use transform="matrix(0.06172839506172839,0,0,0.06172839506172839,39.382716049382715,0)" xlink:href="#I"/><use transform="matrix(0.06172839506172839,0,0,0.06172839506172839,51.72839506172839,0)" xlink:href="#L"/><use transform="matrix(0.06172839506172839,0,0,0.06172839506172839,64.07407407407408,0)" xlink:href="#Z"/></g><path fill="#3a414a" d="M127-220V0H93v-220H8v-28h204v28h-85" id="aa"/><path fill="#3a414a" d="M210-169c-67 3-38 105-44 169h-31v-121c0-29-5-50-35-48C34-165 62-65 56 0H25l-1-190h30c1 10-1 24 2 32 10-44 99-50 107 0 11-21 27-35 58-36 85-2 47 119 55 194h-31v-121c0-29-5-49-35-48" id="ab"/><g id="g"><use transform="matrix(0.06172839506172839,0,0,0.06172839506172839,0,0)" xlink:href="#aa"/><use transform="matrix(0.06172839506172839,0,0,0.06172839506172839,11.049382716049381,0)" xlink:href="#L"/><use transform="matrix(0.06172839506172839,0,0,0.06172839506172839,23.39506172839506,0)" xlink:href="#G"/><use transform="matrix(0.06172839506172839,0,0,0.06172839506172839,30.74074074074074,0)" xlink:href="#ab"/></g><g id="h"><use transform="matrix(0.06172839506172839,0,0,0.06172839506172839,0,0)" xlink:href="#aa"/><use transform="matrix(0.06172839506172839,0,0,0.06172839506172839,11.049382716049381,0)" xlink:href="#L"/><use transform="matrix(0.06172839506172839,0,0,0.06172839506172839,23.39506172839506,0)" xlink:href="#G"/><use transform="matrix(0.06172839506172839,0,0,0.06172839506172839,30.74074074074074,0)" xlink:href="#ab"/></g><path fill="#3a414a" d="M185-189c-5-48-123-54-124 2 14 75 158 14 163 119 3 78-121 87-175 55-17-10-28-26-33-46l33-7c5 56 141 63 141-1 0-78-155-14-162-118-5-82 145-84 179-34 5 7 8 16 11 25" id="ac"/><g id="i"><use transform="matrix(0.06172839506172839,0,0,0.06172839506172839,0,0)" xlink:href="#ac"/><use transform="matrix(0.06172839506172839,0,0,0.06172839506172839,14.814814814814813,0)" xlink:href="#L"/><use transform="matrix(0.06172839506172839,0,0,0.06172839506172839,27.160493827160494,0)" xlink:href="#F"/></g><path fill="#333" d="M24-231v-30h32v30H24zM24 0v-190h32V0H24" id="ad"/><path fill="#333" d="M117-194c89-4 53 116 60 194h-32v-121c0-31-8-49-39-48C34-167 62-67 57 0H25l-1-190h30c1 10-1 24 2 32 11-22 29-35 61-36" id="ae"/><g id="j"><use transform="matrix(0.04938271604938272,0,0,0.04938271604938272,0,0)" xlink:href="#ad"/><use transform="matrix(0.04938271604938272,0,0,0.04938271604938272,3.901234567901235,0)" xlink:href="#ae"/></g><path fill="#333" d="M101-234c-31-9-42 10-38 44h38v23H63V0H32v-167H5v-23h27c-7-52 17-82 69-68v24" id="af"/><g id="k"><use transform="matrix(0.04938271604938272,0,0,0.04938271604938272,0,0)" xlink:href="#V"/><use transform="matrix(0.04938271604938272,0,0,0.04938271604938272,9.876543209876544,0)" xlink:href="#Q"/><use transform="matrix(0.04938271604938272,0,0,0.04938271604938272,19.75308641975309,0)" xlink:href="#af"/><use transform="matrix(0.04938271604938272,0,0,0.04938271604938272,24.69135802469136,0)" xlink:href="#ad"/><use transform="matrix(0.04938271604938272,0,0,0.04938271604938272,28.592592592592595,0)" xlink:href="#ae"/><use transform="matrix(0.04938271604938272,0,0,0.04938271604938272,38.46913580246914,0)" xlink:href="#Q"/><use transform="matrix(0.04938271604938272,0,0,0.04938271604938272,48.345679012345684,0)" xlink:href="#V"/></g><path fill="#333" d="M59-47c-2 24 18 29 38 22v24C64 9 27 4 27-40v-127H5v-23h24l9-43h21v43h35v23H59v120" id="ag"/><path fill="#333" d="M210-169c-67 3-38 105-44 169h-31v-121c0-29-5-50-35-48C34-165 62-65 56 0H25l-1-190h30c1 10-1 24 2 32 10-44 99-50 107 0 11-21 27-35 58-36 85-2 47 119 55 194h-31v-121c0-29-5-49-35-48" id="ah"/><g id="l"><use transform="matrix(0.04938271604938272,0,0,0.04938271604938272,0,0)" xlink:href="#ag"/><use transform="matrix(0.04938271604938272,0,0,0.04938271604938272,4.938271604938272,0)" xlink:href="#Q"/><use transform="matrix(0.04938271604938272,0,0,0.04938271604938272,14.814814814814817,0)" xlink:href="#U"/><use transform="matrix(0.04938271604938272,0,0,0.04938271604938272,20.69135802469136,0)" xlink:href="#ah"/></g><g id="m"><use transform="matrix(0.04938271604938272,0,0,0.04938271604938272,0,0)" xlink:href="#W"/><use transform="matrix(0.04938271604938272,0,0,0.04938271604938272,8.88888888888889,0)" xlink:href="#Q"/><use transform="matrix(0.04938271604938272,0,0,0.04938271604938272,18.765432098765434,0)" xlink:href="#ag"/></g><path fill="#333" d="M141-36C126-15 110 5 73 4 37 3 15-17 15-53c-1-64 63-63 125-63 3-35-9-54-41-54-24 1-41 7-42 31l-33-3c5-37 33-52 76-52 45 0 72 20 72 64v82c-1 20 7 32 28 27v20c-31 9-61-2-59-35zM48-53c0 20 12 33 32 33 41-3 63-29 60-74-43 2-92-5-92 41" id="ai"/><g id="n"><use transform="matrix(0.04938271604938272,0,0,0.04938271604938272,0,0)" xlink:href="#ae"/><use transform="matrix(0.04938271604938272,0,0,0.04938271604938272,9.876543209876544,0)" xlink:href="#ai"/><use transform="matrix(0.04938271604938272,0,0,0.04938271604938272,19.75308641975309,0)" xlink:href="#ah"/><use transform="matrix(0.04938271604938272,0,0,0.04938271604938272,34.51851851851852,0)" xlink:href="#Q"/></g><path fill="#333" d="M84 4C-5 8 30-112 23-190h32v120c0 31 7 50 39 49 72-2 45-101 50-169h31l1 190h-30c-1-10 1-25-2-33-11 22-28 36-60 37" id="aj"/><path fill="#333" d="M24 0v-261h32V0H24" id="ak"/><g id="o"><use transform="matrix(0.04938271604938272,0,0,0.04938271604938272,0,0)" xlink:href="#aj"/><use transform="matrix(0.04938271604938272,0,0,0.04938271604938272,9.876543209876544,0)" xlink:href="#U"/><use transform="matrix(0.04938271604938272,0,0,0.04938271604938272,15.753086419753087,0)" xlink:href="#ak"/></g><path fill="#333" d="M108 0H70L1-190h34L89-25l56-165h34" id="al"/><g id="p"><use transform="matrix(0.04938271604938272,0,0,0.04938271604938272,0,0)" xlink:href="#al"/><use transform="matrix(0.04938271604938272,0,0,0.04938271604938272,8.88888888888889,0)" xlink:href="#ai"/><use transform="matrix(0.04938271604938272,0,0,0.04938271604938272,18.765432098765434,0)" xlink:href="#ak"/><use transform="matrix(0.04938271604938272,0,0,0.04938271604938272,22.666666666666668,0)" xlink:href="#aj"/><use transform="matrix(0.04938271604938272,0,0,0.04938271604938272,32.543209876543216,0)" xlink:href="#Q"/></g><path fill="#54c45e" d="M137 0h-34L2-248h35l83 218 83-218h36" id="am"/><path fill="#54c45e" d="M96-169c-40 0-48 33-48 73s9 75 48 75c24 0 41-14 43-38l32 2c-6 37-31 61-74 61-59 0-76-41-82-99-10-93 101-131 147-64 4 7 5 14 7 22l-32 3c-4-21-16-35-41-35" id="an"/><path fill="#54c45e" d="M115-194c53 0 69 39 70 98 0 66-23 100-70 100C84 3 66-7 56-30L54 0H23l1-261h32v101c10-23 28-34 59-34zm-8 174c40 0 45-34 45-75 0-40-5-75-45-74-42 0-51 32-51 76 0 43 10 73 51 73" id="ao"/><g id="q"><use transform="matrix(0.06172839506172839,0,0,0.06172839506172839,0,0)" xlink:href="#am"/><use transform="matrix(0.06172839506172839,0,0,0.06172839506172839,13.580246913580245,0)" xlink:href="#v"/><use transform="matrix(0.06172839506172839,0,0,0.06172839506172839,25.925925925925924,0)" xlink:href="#an"/><use transform="matrix(0.06172839506172839,0,0,0.06172839506172839,37.03703703703704,0)" xlink:href="#B"/><use transform="matrix(0.06172839506172839,0,0,0.06172839506172839,49.382716049382715,0)" xlink:href="#ao"/></g></defs></g></svg>