<svg xmlns="http://www.w3.org/2000/svg" xmlns:xlink="http://www.w3.org/1999/xlink" xmlns:lucid="lucid" width="1141" height="641"><g transform="translate(40.5 -59.5)" lucid:page-tab-id="IYA8EoTLDxTh"><path d="M-500 0h2000v1000H-500z" fill="#fff"/><path d="M465.33 335.33c0 30.56-37 55.34-82.66 55.34S300 365.9 300 335.33c0-30.56 37-55.33 82.67-55.33 45.65 0 82.66 24.77 82.66 55.33z" stroke="#635dff" fill="#dedeff"/><use xlink:href="#a" transform="matrix(1,0,0,1,304.9999999999999,284.99999999999994) translate(23.123456790123456 55.65277777777778)"/><path d="M765.33 535.33c0 30.56-37 55.34-82.66 55.34S600 565.9 600 535.33c0-30.56 37-55.33 82.67-55.33 45.65 0 82.66 24.77 82.66 55.33z" stroke="#635dff" fill="#fcfcca"/><use xlink:href="#b" transform="matrix(1,0,0,1,605,484.99999999999994) translate(40.99382716049383 55.65277777777778)"/><path d="M383.14 497.26h-.95v-47.8h.94zm0-69.13h-.95v-36.46h.94z" stroke="#635dff" stroke-width=".05" fill="#635dff"/><path d="M382.67 391.17l.47-.02v.53h-.95v-.53z" fill="#635dff"/><path stroke="#635dff" stroke-width=".05" fill="#635dff"/><path d="M382.67 496.25l9.77-16.52.82.48-10.6 17.92-10.58-17.9.8-.5z" stroke="#635dff" stroke-width=".05" fill="#635dff"/><use xlink:href="#c" transform="matrix(1,0,0,1,328.88888888888886,428.12970364702784) translate(0 14.222222222222223)"/><use xlink:href="#d" transform="matrix(1,0,0,1,328.88888888888886,428.12970364702784) translate(54.320987654320994 14.222222222222223)"/><use xlink:href="#e" transform="matrix(1,0,0,1,328.88888888888886,428.12970364702784) translate(74.07407407407408 14.222222222222223)"/><path d="M300 504.67a6 6 0 0 1 6-6h153.33a6 6 0 0 1 6 6V566a6 6 0 0 1-6 6H306a6 6 0 0 1-6-6z" stroke="#635dff" fill="#fff"/><use xlink:href="#f" transform="matrix(1,0,0,1,304.9999999999999,503.66666666666663) translate(1.518518518518519 37.77777777777778)"/><use xlink:href="#g" transform="matrix(1,0,0,1,304.9999999999999,503.66666666666663) translate(50.901234567901234 37.77777777777778)"/><use xlink:href="#h" transform="matrix(1,0,0,1,304.9999999999999,503.66666666666663) translate(63.24691358024691 37.77777777777778)"/><use xlink:href="#i" transform="matrix(1,0,0,1,304.9999999999999,503.66666666666663) translate(112.62962962962963 37.77777777777778)"/><path d="M765.33 335.33c0 30.56-37 55.34-82.66 55.34S600 365.9 600 335.33c0-30.56 37-55.33 82.67-55.33 45.65 0 82.66 24.77 82.66 55.33z" stroke="#635dff" fill="#fff3d9"/><use xlink:href="#j" transform="matrix(1,0,0,1,605,284.99999999999994) translate(40.498827160493825 43.02777777777778)"/><use xlink:href="#k" transform="matrix(1,0,0,1,605,284.99999999999994) translate(40.52969135802469 69.69444444444446)"/><path d="M490.22 335.8h-23.9v-.94h23.9zm108.37 0h-23.5v-.94h23.5z" stroke="#635dff" stroke-width=".05" fill="#635dff"/><path d="M466.35 335.8h-.53v-.94h.53z" fill="#635dff"/><path stroke="#635dff" stroke-width=".05" fill="#635dff"/><path d="M599.45 335.33l-17.9 10.6-.5-.82 16.53-9.77-16.52-9.77.5-.82z" stroke="#635dff" stroke-width=".05" fill="#635dff"/><use xlink:href="#l" transform="matrix(1,0,0,1,490.22222206533104,303.33333333333326) translate(26.671666666666674 14.222222222222223)"/><use xlink:href="#m" transform="matrix(1,0,0,1,490.22222206533104,303.33333333333326) translate(0.005000000000002558 35.55555555555556)"/><use xlink:href="#n" transform="matrix(1,0,0,1,490.22222206533104,303.33333333333326) translate(26.696358024691364 56.88888888888889)"/><path d="M194.2 335.8h-47.87v-.94h47.86zm104.4 0h-24.46v-.94h24.45z" stroke="#635dff" stroke-width=".05" fill="#635dff"/><path d="M146.35 335.8h-.53v-.94h.53z" fill="#635dff"/><path stroke="#635dff" stroke-width=".05" fill="#635dff"/><path d="M299.45 335.33l-17.9 10.6-.5-.82 16.53-9.77-16.52-9.77.5-.82z" stroke="#635dff" stroke-width=".05" fill="#635dff"/><use xlink:href="#l" transform="matrix(1,0,0,1,194.1876222087404,303.33333333333326) translate(24.202530864197534 14.222222222222223)"/><use xlink:href="#o" transform="matrix(1,0,0,1,194.1876222087404,303.33333333333326) translate(0.005000000000002558 35.55555555555556)"/><use xlink:href="#p" transform="matrix(1,0,0,1,194.1876222087404,303.33333333333326) translate(30.597592592592598 56.88888888888889)"/><path d="M314.1 219.04l-9.8 3.73-10.5 4.48-11.3 5.4-12.3 6.53-13.5 7.92-15.1 9.7-17.16 12.1-20.1 15.46-24.65 20.68-33.17 30.3-.65-.7 33.2-30.32 24.67-20.7 20.12-15.5 17.2-12.1 15.12-9.73 13.54-7.95 12.32-6.54 11.34-5.4 10.53-4.52 9.87-3.73 2.36-.8h3.02zm133.93-6.55l15.34 3.26 15.34 3.94 15.23 4.6 14.96 5.22 14.6 5.8 14.18 6.3 13.67 6.8 13.12 7.22 12.53 7.6 11.93 7.92 11.32 8.23 10.72 8.5 10.1 8.72-.63.7-10.08-8.7-10.7-8.47-11.28-8.2-11.9-7.92-12.5-7.57-13.07-7.2-13.62-6.77-14.14-6.3-14.58-5.8-14.93-5.2-15.17-4.58-15.3-3.94-15.3-3.26-7.66-1.3v-.96z" stroke="#635dff" stroke-width=".05" fill="#635dff"/><path d="M146.53 335.34l-.72.66.03-.67-.02-.62z" fill="#635dff"/><path stroke="#635dff" stroke-width=".05" fill="#635dff"/><path d="M621.4 297.55L601 293.4l.2-.92 18.8 3.82-5.7-18.33.9-.28z" stroke="#635dff" stroke-width=".05" fill="#635dff"/><use xlink:href="#q" transform="matrix(1,0,0,1,309.98048119769436,196.0310885867115) translate(0 14.222222222222223)"/><use xlink:href="#r" transform="matrix(1,0,0,1,309.98048119769436,196.0310885867115) translate(36.49382716049384 14.222222222222223)"/><use xlink:href="#s" transform="matrix(1,0,0,1,309.98048119769436,196.0310885867115) translate(115.40740740740743 14.222222222222223)"/><path d="M634.8 488.57l-.46.83-91.52-51h1.95zm-128.3-71.5h-1.96l-68.5-38.18.47-.84z" stroke="#635dff" stroke-width=".05" fill="#635dff"/><path d="M436.52 378.06l-.46.83-.7-.4.97-.54z" fill="#635dff"/><path stroke="#635dff" stroke-width=".05" fill="#635dff"/><path d="M635.32 489.4l-20.8.54-.02-.95 19.2-.5-9.7-16.58.83-.48z" stroke="#635dff" stroke-width=".05" fill="#635dff"/><use xlink:href="#t" transform="matrix(1,0,0,1,490.60618684285083,417.0626137955283) translate(0 14.222222222222223)"/><use xlink:href="#u" transform="matrix(1,0,0,1,490.60618684285083,417.0626137955283) translate(34.567901234567906 14.222222222222223)"/><path d="M1065.33 328c0 30.56-37 55.33-82.66 55.33S900 358.56 900 328s37-55.33 82.67-55.33c45.65 0 82.66 24.77 82.66 55.33z" stroke="#635dff" fill="#fff3d9"/><g><use xlink:href="#v" transform="matrix(1,0,0,1,905.0000000000002,277.6666666666667) translate(40.99382716049383 55.65277777777778)"/></g><path d="M802.5 335.8h-36.17v-.94h36.15zm96.8 0h-35.73v-.94h35.74z" stroke="#635dff" stroke-width=".05" fill="#635dff"/><path d="M766.35 335.8h-.53v-.94h.53z" fill="#635dff"/><path stroke="#635dff" stroke-width=".05" fill="#635dff"/><path d="M900.17 335.33l-17.9 10.6-.5-.82 16.54-9.77-16.52-9.77.5-.82z" stroke="#635dff" stroke-width=".05" fill="#635dff"/><g><use xlink:href="#w" transform="matrix(1,0,0,1,802.4846101879357,303.3333333333333) translate(14.770432098765431 14.222222222222223)"/><use xlink:href="#x" transform="matrix(1,0,0,1,802.4846101879357,303.3333333333333) translate(0.004999999999999005 35.55555555555556)"/><use xlink:href="#y" transform="matrix(1,0,0,1,802.4846101879357,303.3333333333333) translate(23.140802469135803 56.88888888888889)"/></g><path d="M1080 380c0 165.68-204.75 300-457.33 300-252.58 0-457.34-134.32-457.34-300 0-165.7 204.76-300 457.34-300C875.25 80 1080 214.3 1080 380z" fill-opacity="0"/><path d="M1079.72 390.02l-.42 6.75-.34 3.24m-.53 5v.12l-1.24 8.34-.3 1.43m-.93 4.92l-.38 2-1.83 7.77m-1.32 4.82l-1.17 4.2-1.76 5.4m-1.62 4.73l-2.56 6.9-1.03 2.45m-1.94 4.62l-.64 1.54-3.56 7.55m-2.27 4.48l-2.9 5.5-1.9 3.3m-2.5 4.34l-.75 1.3-4.57 7.2m-2.8 4.16l-4.74 6.84-1.02 1.34m-3.03 4l-3 3.94-3.24 3.9m-3.2 3.86l-1.36 1.65-5.27 5.87m-3.36 3.72l-7 7.15m-3.57 3.53l-7.3 6.86m-3.73 3.35l-7.6 6.53m-3.85 3.2l-7.85 6.22m-3.97 3.05l-8.1 5.9m-4.07 2.93l-8.35 5.55m-4.17 2.77l-2.1 1.4-6.4 3.88m-4.3 2.6l-5.22 3.15-3.43 1.9m-4.4 2.4l-8.77 4.83m-4.48 2.26l-8.98 4.46m-4.5 2.22l-1.18.6-7.94 3.53m-4.58 2.03l-7.35 3.28-1.83.72m-4.66 1.85l-9.32 3.68m-4.66 1.85l-.72.28-8.73 3.04m-4.74 1.65L825.4 649l-.44.13m-4.8 1.44l-9.6 2.9m-4.78 1.44l-4.15 1.26-5.5 1.42m-4.86 1.25l-9.7 2.5m-4.86 1.23h-.02l-9.78 2.1m-4.9 1.03l-9.8 2.07m-4.93.9l-9.88 1.67m-4.94.84l-8.9 1.5-1 .13m-4.96.63l-9.94 1.26m-4.98.62l-7.08.9-2.87.23m-5 .42l-9.98.84m-5 .42l-5.87.5-4.12.17m-5 .2l-10.02.42m-5 .2l-5.2.23-4.8.04m-5.02.05l-5 .05h-.02l-5-.1m-5-.1l-10.03-.22m-5-.1l-4.58-.1-5.44-.34m-5-.3l-10-.64m-5-.32l-3.6-.22-6.37-.67m-5-.54l-9.95-1.04m-5-.53l-2.02-.22-7.9-1.17m-4.95-.72l-9.9-1.46m-4.96-.74l-9.84-1.88m-4.92-.94l-9.85-1.87m-4.9-1.08l-9.75-2.3m-4.88-1.13l-7.77-1.84-1.96-.55m-4.83-1.33l-9.65-2.7m-4.84-1.34l-3.1-.87-6.47-2.1m-4.77-1.55l-9.54-3.08m-4.74-1.65l-9.4-3.5m-4.7-1.74l-5.38-2-3.94-1.65m-4.6-1.95l-9.25-3.88m-4.6-2.02l-9.07-4.26m-4.53-2.14l-3.75-1.76-5.2-2.72m-4.45-2.32l-8.22-4.3-.65-.37m-4.34-2.5l-8.7-5m-4.3-2.58l-8.45-5.37m-4.23-2.67l-1.2-.77-7.07-4.9m-4.1-2.86l-2.93-2.03-5.15-3.9m-4-3.03l-3.8-2.9-4.04-3.33m-3.86-3.2l-3.95-3.25-3.64-3.28m-3.73-3.35l-3.47-3.12-3.82-3.75m-3.58-3.5l-2.48-2.43-4.5-4.78m-3.42-3.65l-1.07-1.15-5.52-6.4m-3.24-3.82l-6.23-7.85m-2.96-4.03l-4.32-5.94-1.48-2.22m-2.78-4.17l-1.8-2.7-3.5-5.8m-2.55-4.3l-4.24-7.74-.54-1.07m-2.22-4.5l-1.6-3.2-2.62-5.9m-1.96-4.6l-2.67-6.75-.9-2.6m-1.66-4.74l-.42-1.16-2.54-8.4m-1.24-4.86l-.93-3.6-1.3-6.17m-.94-4.9l-.95-5.62-.54-4.3m-.6-4.97l-.6-7.42-.12-2.56m-.2-5l-.04-.82-.05-4.2.1-5m.18-5.02l.44-6.75.34-3.24m.52-5v-.12l1.25-8.34.27-1.43m.94-4.92l.38-2 1.82-7.77m1.33-4.82l1.16-4.2 1.75-5.4m1.63-4.73l2.56-6.9 1.03-2.45m1.94-4.62l.65-1.54 3.55-7.55m2.28-4.48l2.88-5.5 1.9-3.3m2.5-4.34l.76-1.3 4.56-7.2m2.78-4.16l4.75-6.84 1.02-1.34m3.03-4l3-3.94 3.22-3.9m3.2-3.86l1.36-1.65 5.28-5.87m3.37-3.72l7-7.15m3.56-3.53l7.3-6.86m3.73-3.35l7.6-6.53m3.85-3.2l7.87-6.22m3.97-3.05l8.1-5.9m4.06-2.93l8.35-5.55m4.18-2.77l2.1-1.4 6.4-3.88m4.3-2.6l5.22-3.15 3.43-1.9m4.4-2.4l8.78-4.83m4.47-2.26l8.98-4.46m4.5-2.22l1.2-.6 7.93-3.53m4.58-2.03l7.36-3.28 1.84-.72m4.66-1.85l9.3-3.68m4.67-1.85l.72-.28 8.74-3.04m4.72-1.65l9.04-3.15.43-.13m4.8-1.44l9.58-2.9m4.8-1.45l4.14-1.25 5.52-1.4m4.85-1.26l9.7-2.5m4.85-1.23h.03l9.77-2.1m4.9-1.03l9.8-2.07m4.93-.9l9.9-1.67m4.93-.84l8.9-1.5 1-.13m4.97-.63l9.94-1.26m4.98-.6l7.1-.9 2.85-.25m5-.42l9.98-.84m5-.42l5.88-.5 4.12-.17m5-.2l10.02-.42m5-.2l5.2-.22 4.83-.05m5-.05l5.02-.05 5 .1m5.02.1l10 .22m5 .1l4.58.1 5.44.34m5 .32l10 .62m5 .32l3.6.22 6.4.67m4.97.54l9.96 1.05m4.98.5l2.03.22 7.9 1.17m4.95.72l9.92 1.46m4.95.74l9.84 1.88m4.92.94L762 94.2m4.9 1.08l9.75 2.3m4.88 1.14l7.77 1.82 1.97.54m4.82 1.35l9.65 2.7m4.82 1.34l3.1.87 6.47 2.1m4.77 1.55l9.54 3.08m4.73 1.65l9.4 3.5m4.7 1.74l5.4 2 3.92 1.66m4.6 1.94l9.25 3.88m4.58 2.02l9.07 4.26m4.53 2.14l3.75 1.76 5.2 2.72m4.45 2.32l8.22 4.3.65.37m4.34 2.5l8.68 5m4.3 2.58l8.47 5.37m4.22 2.67l1.2.77 7.06 4.9m4.12 2.86l2.92 2.03 5.15 3.9m4 3.03l3.8 2.9 4.04 3.33m3.87 3.2l3.94 3.25 3.65 3.28m3.73 3.35l3.47 3.12 3.82 3.75m3.6 3.5l2.46 2.43 4.5 4.78m3.42 3.65l1.08 1.15 5.52 6.4m3.24 3.82l6.22 7.85m2.98 4.03l4.3 5.94 1.5 2.22m2.77 4.17l1.8 2.7 3.5 5.8m2.56 4.3l4.25 7.74.53 1.07m2.24 4.5l1.6 3.2 2.6 5.9m1.97 4.6l2.7 6.75.9 2.6m1.64 4.74l.4 1.16 2.55 8.4m1.24 4.86l.92 3.6 1.3 6.17m.94 4.9l.95 5.62.54 4.3m.58 4.97l.63 7.42.1 2.56m.22 5l.04.82.04 4.2-.1 5" stroke="#635dff" fill="none"/><g><use xlink:href="#z" transform="matrix(1,0,0,1,170.33333333333337,85) translate(362.505 17.77777777777778)"/><use xlink:href="#A" transform="matrix(1,0,0,1,170.33333333333337,85) translate(474.78895061728394 17.77777777777778)"/></g><path d="M145.33 335.33c0 30.56-37 55.34-82.66 55.34S-20 365.9-20 335.33C-20 304.77 17 280 62.67 280c45.65 0 82.66 24.77 82.66 55.33z" stroke="#54c45e" fill-opacity="0"/><g><use xlink:href="#B" transform="matrix(1,0,0,1,-15,284.99999999999994) translate(27.413580246913583 55.65277777777778)"/></g><defs><path fill="#635dff" d="M143 4C61 4 22-44 18-125c-5-107 100-154 193-111 17 8 29 25 37 43l-32 9c-13-25-37-40-76-40-61 0-88 39-88 99 0 61 29 100 91 101 35 0 62-11 79-27v-45h-74v-28h105v86C228-13 192 4 143 4" id="C"/><path fill="#635dff" d="M100-194c63 0 86 42 84 106H49c0 40 14 67 53 68 26 1 43-12 49-29l28 8c-11 28-37 45-77 45C44 4 14-33 15-96c1-61 26-98 85-98zm52 81c6-60-76-77-97-28-3 7-6 17-6 28h103" id="D"/><path fill="#635dff" d="M117-194c89-4 53 116 60 194h-32v-121c0-31-8-49-39-48C34-167 62-67 57 0H25l-1-190h30c1 10-1 24 2 32 11-22 29-35 61-36" id="E"/><path fill="#635dff" d="M114-163C36-179 61-72 57 0H25l-1-190h30c1 12-1 29 2 39 6-27 23-49 58-41v29" id="F"/><path fill="#635dff" d="M141-36C126-15 110 5 73 4 37 3 15-17 15-53c-1-64 63-63 125-63 3-35-9-54-41-54-24 1-41 7-42 31l-33-3c5-37 33-52 76-52 45 0 72 20 72 64v82c-1 20 7 32 28 27v20c-31 9-61-2-59-35zM48-53c0 20 12 33 32 33 41-3 63-29 60-74-43 2-92-5-92 41" id="G"/><path fill="#635dff" d="M59-47c-2 24 18 29 38 22v24C64 9 27 4 27-40v-127H5v-23h24l9-43h21v43h35v23H59v120" id="H"/><path fill="#635dff" d="M24-231v-30h32v30H24zM24 0v-190h32V0H24" id="I"/><path fill="#635dff" d="M100-194c62-1 85 37 85 99 1 63-27 99-86 99S16-35 15-95c0-66 28-99 85-99zM99-20c44 1 53-31 53-75 0-43-8-75-51-75s-53 32-53 75 10 74 51 75" id="J"/><g id="a"><use transform="matrix(0.06172839506172839,0,0,0.06172839506172839,0,0)" xlink:href="#C"/><use transform="matrix(0.06172839506172839,0,0,0.06172839506172839,17.28395061728395,0)" xlink:href="#D"/><use transform="matrix(0.06172839506172839,0,0,0.06172839506172839,29.629629629629626,0)" xlink:href="#E"/><use transform="matrix(0.06172839506172839,0,0,0.06172839506172839,41.9753086419753,0)" xlink:href="#D"/><use transform="matrix(0.06172839506172839,0,0,0.06172839506172839,54.32098765432098,0)" xlink:href="#F"/><use transform="matrix(0.06172839506172839,0,0,0.06172839506172839,61.66666666666666,0)" xlink:href="#G"/><use transform="matrix(0.06172839506172839,0,0,0.06172839506172839,74.01234567901234,0)" xlink:href="#H"/><use transform="matrix(0.06172839506172839,0,0,0.06172839506172839,80.18518518518518,0)" xlink:href="#I"/><use transform="matrix(0.06172839506172839,0,0,0.06172839506172839,85.06172839506172,0)" xlink:href="#J"/><use transform="matrix(0.06172839506172839,0,0,0.06172839506172839,97.4074074074074,0)" xlink:href="#E"/></g><path fill="#635dff" d="M240 0l2-218c-23 76-54 145-80 218h-23L58-218 59 0H30v-248h44l77 211c21-75 51-140 76-211h43V0h-30" id="K"/><path fill="#635dff" d="M106-169C34-169 62-67 57 0H25v-261h32l-1 103c12-21 28-36 61-36 89 0 53 116 60 194h-32v-121c2-32-8-49-39-48" id="L"/><path fill="#635dff" d="M85-194c31 0 48 13 60 33l-1-100h32l1 261h-30c-2-10 0-23-3-31C134-8 116 4 85 4 32 4 16-35 15-94c0-66 23-100 70-100zm9 24c-40 0-46 34-46 75 0 40 6 74 45 74 42 0 51-32 51-76 0-42-9-74-50-73" id="M"/><g id="b"><use transform="matrix(0.06172839506172839,0,0,0.06172839506172839,0,0)" xlink:href="#K"/><use transform="matrix(0.06172839506172839,0,0,0.06172839506172839,18.456790123456788,0)" xlink:href="#D"/><use transform="matrix(0.06172839506172839,0,0,0.06172839506172839,30.80246913580247,0)" xlink:href="#H"/><use transform="matrix(0.06172839506172839,0,0,0.06172839506172839,36.97530864197531,0)" xlink:href="#L"/><use transform="matrix(0.06172839506172839,0,0,0.06172839506172839,49.32098765432099,0)" xlink:href="#J"/><use transform="matrix(0.06172839506172839,0,0,0.06172839506172839,61.666666666666664,0)" xlink:href="#M"/></g><g id="c"><use transform="matrix(0.04938271604938272,0,0,0.04938271604938272,0,0)" xlink:href="#D"/><use transform="matrix(0.04938271604938272,0,0,0.04938271604938272,9.876543209876544,0)" xlink:href="#E"/><use transform="matrix(0.04938271604938272,0,0,0.04938271604938272,19.75308641975309,0)" xlink:href="#M"/><use transform="matrix(0.04938271604938272,0,0,0.04938271604938272,29.629629629629633,0)" xlink:href="#D"/><use transform="matrix(0.04938271604938272,0,0,0.04938271604938272,39.50617283950618,0)" xlink:href="#M"/></g><g id="d"><use transform="matrix(0.04938271604938272,0,0,0.04938271604938272,0,0)" xlink:href="#G"/><use transform="matrix(0.04938271604938272,0,0,0.04938271604938272,9.876543209876544,0)" xlink:href="#H"/></g><path fill="#635dff" d="M210-169c-67 3-38 105-44 169h-31v-121c0-29-5-50-35-48C34-165 62-65 56 0H25l-1-190h30c1 10-1 24 2 32 10-44 99-50 107 0 11-21 27-35 58-36 85-2 47 119 55 194h-31v-121c0-29-5-49-35-48" id="N"/><g id="e"><use transform="matrix(0.04938271604938272,0,0,0.04938271604938272,0,0)" xlink:href="#H"/><use transform="matrix(0.04938271604938272,0,0,0.04938271604938272,4.938271604938272,0)" xlink:href="#I"/><use transform="matrix(0.04938271604938272,0,0,0.04938271604938272,8.839506172839506,0)" xlink:href="#N"/><use transform="matrix(0.04938271604938272,0,0,0.04938271604938272,23.60493827160494,0)" xlink:href="#D"/></g><g id="f"><use transform="matrix(0.06172839506172839,0,0,0.06172839506172839,0,0)" xlink:href="#M"/><use transform="matrix(0.06172839506172839,0,0,0.06172839506172839,12.345679012345679,0)" xlink:href="#G"/><use transform="matrix(0.06172839506172839,0,0,0.06172839506172839,24.691358024691358,0)" xlink:href="#H"/><use transform="matrix(0.06172839506172839,0,0,0.06172839506172839,30.864197530864196,0)" xlink:href="#D"/></g><path fill="#635dff" d="M0 4l72-265h28L28 4H0" id="O"/><use transform="matrix(0.06172839506172839,0,0,0.06172839506172839,0,0)" xlink:href="#O" id="g"/><g id="h"><use transform="matrix(0.06172839506172839,0,0,0.06172839506172839,0,0)" xlink:href="#M"/><use transform="matrix(0.06172839506172839,0,0,0.06172839506172839,12.345679012345679,0)" xlink:href="#G"/><use transform="matrix(0.06172839506172839,0,0,0.06172839506172839,24.691358024691358,0)" xlink:href="#H"/><use transform="matrix(0.06172839506172839,0,0,0.06172839506172839,30.864197530864196,0)" xlink:href="#D"/></g><g id="i"><use transform="matrix(0.06172839506172839,0,0,0.06172839506172839,0,0)" xlink:href="#H"/><use transform="matrix(0.06172839506172839,0,0,0.06172839506172839,6.172839506172839,0)" xlink:href="#I"/><use transform="matrix(0.06172839506172839,0,0,0.06172839506172839,11.049382716049383,0)" xlink:href="#N"/><use transform="matrix(0.06172839506172839,0,0,0.06172839506172839,29.50617283950617,0)" xlink:href="#D"/></g><path fill="#635dff" d="M185-189c-5-48-123-54-124 2 14 75 158 14 163 119 3 78-121 87-175 55-17-10-28-26-33-46l33-7c5 56 141 63 141-1 0-78-155-14-162-118-5-82 145-84 179-34 5 7 8 16 11 25" id="P"/><path fill="#635dff" d="M179-190L93 31C79 59 56 82 12 73V49c39 6 53-20 64-50L1-190h34L92-34l54-156h33" id="Q"/><path fill="#635dff" d="M135-143c-3-34-86-38-87 0 15 53 115 12 119 90S17 21 10-45l28-5c4 36 97 45 98 0-10-56-113-15-118-90-4-57 82-63 122-42 12 7 21 19 24 35" id="R"/><g id="j"><use transform="matrix(0.06172839506172839,0,0,0.06172839506172839,0,0)" xlink:href="#P"/><use transform="matrix(0.06172839506172839,0,0,0.06172839506172839,14.814814814814813,0)" xlink:href="#Q"/><use transform="matrix(0.06172839506172839,0,0,0.06172839506172839,25.925925925925924,0)" xlink:href="#R"/><use transform="matrix(0.06172839506172839,0,0,0.06172839506172839,37.03703703703704,0)" xlink:href="#H"/><use transform="matrix(0.06172839506172839,0,0,0.06172839506172839,43.20987654320988,0)" xlink:href="#D"/><use transform="matrix(0.06172839506172839,0,0,0.06172839506172839,55.55555555555556,0)" xlink:href="#N"/></g><path fill="#635dff" d="M137 0h-34L2-248h35l83 218 83-218h36" id="S"/><g id="k"><use transform="matrix(0.06172839506172839,0,0,0.06172839506172839,0,0)" xlink:href="#S"/><use transform="matrix(0.06172839506172839,0,0,0.06172839506172839,13.580246913580245,0)" xlink:href="#D"/><use transform="matrix(0.06172839506172839,0,0,0.06172839506172839,25.925925925925924,0)" xlink:href="#F"/><use transform="matrix(0.06172839506172839,0,0,0.06172839506172839,33.2716049382716,0)" xlink:href="#R"/><use transform="matrix(0.06172839506172839,0,0,0.06172839506172839,44.38271604938271,0)" xlink:href="#I"/><use transform="matrix(0.06172839506172839,0,0,0.06172839506172839,49.25925925925925,0)" xlink:href="#J"/><use transform="matrix(0.06172839506172839,0,0,0.06172839506172839,61.60493827160493,0)" xlink:href="#E"/></g><path fill="#635dff" d="M206 0h-36l-40-164L89 0H53L-1-190h32L70-26l43-164h34l41 164 42-164h31" id="T"/><g id="l"><use transform="matrix(0.04938271604938272,0,0,0.04938271604938272,0,0)" xlink:href="#T"/><use transform="matrix(0.04938271604938272,0,0,0.04938271604938272,12.790123456790125,0)" xlink:href="#G"/><use transform="matrix(0.04938271604938272,0,0,0.04938271604938272,22.66666666666667,0)" xlink:href="#R"/></g><path fill="#635dff" d="M96-169c-40 0-48 33-48 73s9 75 48 75c24 0 41-14 43-38l32 2c-6 37-31 61-74 61-59 0-76-41-82-99-10-93 101-131 147-64 4 7 5 14 7 22l-32 3c-4-21-16-35-41-35" id="U"/><g id="m"><use transform="matrix(0.04938271604938272,0,0,0.04938271604938272,0,0)" xlink:href="#G"/><use transform="matrix(0.04938271604938272,0,0,0.04938271604938272,9.876543209876544,0)" xlink:href="#R"/><use transform="matrix(0.04938271604938272,0,0,0.04938271604938272,18.765432098765434,0)" xlink:href="#R"/><use transform="matrix(0.04938271604938272,0,0,0.04938271604938272,27.654320987654323,0)" xlink:href="#J"/><use transform="matrix(0.04938271604938272,0,0,0.04938271604938272,37.53086419753087,0)" xlink:href="#U"/><use transform="matrix(0.04938271604938272,0,0,0.04938271604938272,46.41975308641976,0)" xlink:href="#I"/><use transform="matrix(0.04938271604938272,0,0,0.04938271604938272,50.320987654320994,0)" xlink:href="#G"/><use transform="matrix(0.04938271604938272,0,0,0.04938271604938272,60.19753086419754,0)" xlink:href="#H"/><use transform="matrix(0.04938271604938272,0,0,0.04938271604938272,65.13580246913581,0)" xlink:href="#D"/><use transform="matrix(0.04938271604938272,0,0,0.04938271604938272,75.01234567901236,0)" xlink:href="#M"/></g><g id="n"><use transform="matrix(0.04938271604938272,0,0,0.04938271604938272,0,0)" xlink:href="#T"/><use transform="matrix(0.04938271604938272,0,0,0.04938271604938272,12.790123456790125,0)" xlink:href="#I"/><use transform="matrix(0.04938271604938272,0,0,0.04938271604938272,16.69135802469136,0)" xlink:href="#H"/><use transform="matrix(0.04938271604938272,0,0,0.04938271604938272,21.629629629629633,0)" xlink:href="#L"/></g><path fill="#635dff" d="M177-190C167-65 218 103 67 71c-23-6-38-20-44-43l32-5c15 47 100 32 89-28v-30C133-14 115 1 83 1 29 1 15-40 15-95c0-56 16-97 71-98 29-1 48 16 59 35 1-10 0-23 2-32h30zM94-22c36 0 50-32 50-73 0-42-14-75-50-75-39 0-46 34-46 75s6 73 46 73" id="V"/><g id="o"><use transform="matrix(0.04938271604938272,0,0,0.04938271604938272,0,0)" xlink:href="#V"/><use transform="matrix(0.04938271604938272,0,0,0.04938271604938272,9.876543209876544,0)" xlink:href="#D"/><use transform="matrix(0.04938271604938272,0,0,0.04938271604938272,19.75308641975309,0)" xlink:href="#E"/><use transform="matrix(0.04938271604938272,0,0,0.04938271604938272,29.629629629629633,0)" xlink:href="#D"/><use transform="matrix(0.04938271604938272,0,0,0.04938271604938272,39.50617283950618,0)" xlink:href="#F"/><use transform="matrix(0.04938271604938272,0,0,0.04938271604938272,45.38271604938272,0)" xlink:href="#G"/><use transform="matrix(0.04938271604938272,0,0,0.04938271604938272,55.25925925925927,0)" xlink:href="#H"/><use transform="matrix(0.04938271604938272,0,0,0.04938271604938272,60.19753086419754,0)" xlink:href="#D"/><use transform="matrix(0.04938271604938272,0,0,0.04938271604938272,70.07407407407408,0)" xlink:href="#M"/></g><path fill="#635dff" d="M115-194c53 0 69 39 70 98 0 66-23 100-70 100C84 3 66-7 56-30L54 0H23l1-261h32v101c10-23 28-34 59-34zm-8 174c40 0 45-34 45-75 0-40-5-75-45-74-42 0-51 32-51 76 0 43 10 73 51 73" id="W"/><g id="p"><use transform="matrix(0.04938271604938272,0,0,0.04938271604938272,0,0)" xlink:href="#W"/><use transform="matrix(0.04938271604938272,0,0,0.04938271604938272,9.876543209876544,0)" xlink:href="#Q"/></g><g id="q"><use transform="matrix(0.04938271604938272,0,0,0.04938271604938272,0,0)" xlink:href="#T"/><use transform="matrix(0.04938271604938272,0,0,0.04938271604938272,12.790123456790125,0)" xlink:href="#G"/><use transform="matrix(0.04938271604938272,0,0,0.04938271604938272,22.66666666666667,0)" xlink:href="#R"/></g><path fill="#635dff" d="M84 4C-5 8 30-112 23-190h32v120c0 31 7 50 39 49 72-2 45-101 50-169h31l1 190h-30c-1-10 1-25-2-33-11 22-28 36-60 37" id="X"/><g id="r"><use transform="matrix(0.04938271604938272,0,0,0.04938271604938272,0,0)" xlink:href="#G"/><use transform="matrix(0.04938271604938272,0,0,0.04938271604938272,9.876543209876544,0)" xlink:href="#H"/><use transform="matrix(0.04938271604938272,0,0,0.04938271604938272,14.814814814814817,0)" xlink:href="#H"/><use transform="matrix(0.04938271604938272,0,0,0.04938271604938272,19.75308641975309,0)" xlink:href="#F"/><use transform="matrix(0.04938271604938272,0,0,0.04938271604938272,25.629629629629633,0)" xlink:href="#I"/><use transform="matrix(0.04938271604938272,0,0,0.04938271604938272,29.530864197530867,0)" xlink:href="#W"/><use transform="matrix(0.04938271604938272,0,0,0.04938271604938272,39.40740740740741,0)" xlink:href="#X"/><use transform="matrix(0.04938271604938272,0,0,0.04938271604938272,49.283950617283956,0)" xlink:href="#H"/><use transform="matrix(0.04938271604938272,0,0,0.04938271604938272,54.22222222222223,0)" xlink:href="#D"/><use transform="matrix(0.04938271604938272,0,0,0.04938271604938272,64.09876543209877,0)" xlink:href="#M"/></g><g id="s"><use transform="matrix(0.04938271604938272,0,0,0.04938271604938272,0,0)" xlink:href="#H"/><use transform="matrix(0.04938271604938272,0,0,0.04938271604938272,4.938271604938272,0)" xlink:href="#J"/></g><g id="t"><use transform="matrix(0.04938271604938272,0,0,0.04938271604938272,0,0)" xlink:href="#L"/><use transform="matrix(0.04938271604938272,0,0,0.04938271604938272,9.876543209876544,0)" xlink:href="#G"/><use transform="matrix(0.04938271604938272,0,0,0.04938271604938272,19.75308641975309,0)" xlink:href="#M"/></g><path fill="#635dff" d="M115-194c55 1 70 41 70 98S169 2 115 4C84 4 66-9 55-30l1 105H24l-1-265h31l2 30c10-21 28-34 59-34zm-8 174c40 0 45-34 45-75s-6-73-45-74c-42 0-51 32-51 76 0 43 10 73 51 73" id="Y"/><path fill="#635dff" d="M24 0v-261h32V0H24" id="Z"/><g id="u"><use transform="matrix(0.04938271604938272,0,0,0.04938271604938272,0,0)" xlink:href="#Y"/><use transform="matrix(0.04938271604938272,0,0,0.04938271604938272,9.876543209876544,0)" xlink:href="#Z"/><use transform="matrix(0.04938271604938272,0,0,0.04938271604938272,13.777777777777779,0)" xlink:href="#G"/><use transform="matrix(0.04938271604938272,0,0,0.04938271604938272,23.654320987654323,0)" xlink:href="#E"/></g><g id="v"><use transform="matrix(0.06172839506172839,0,0,0.06172839506172839,0,0)" xlink:href="#P"/><use transform="matrix(0.06172839506172839,0,0,0.06172839506172839,14.814814814814813,0)" xlink:href="#Q"/><use transform="matrix(0.06172839506172839,0,0,0.06172839506172839,25.925925925925924,0)" xlink:href="#R"/><use transform="matrix(0.06172839506172839,0,0,0.06172839506172839,37.03703703703704,0)" xlink:href="#H"/><use transform="matrix(0.06172839506172839,0,0,0.06172839506172839,43.20987654320988,0)" xlink:href="#D"/><use transform="matrix(0.06172839506172839,0,0,0.06172839506172839,55.55555555555556,0)" xlink:href="#N"/></g><g id="w"><use transform="matrix(0.04938271604938272,0,0,0.04938271604938272,0,0)" xlink:href="#T"/><use transform="matrix(0.04938271604938272,0,0,0.04938271604938272,12.790123456790125,0)" xlink:href="#G"/><use transform="matrix(0.04938271604938272,0,0,0.04938271604938272,22.66666666666667,0)" xlink:href="#R"/></g><path fill="#635dff" d="M108 0H70L1-190h34L89-25l56-165h34" id="aa"/><g id="x"><use transform="matrix(0.04938271604938272,0,0,0.04938271604938272,0,0)" xlink:href="#F"/><use transform="matrix(0.04938271604938272,0,0,0.04938271604938272,5.8765432098765435,0)" xlink:href="#D"/><use transform="matrix(0.04938271604938272,0,0,0.04938271604938272,15.753086419753087,0)" xlink:href="#aa"/><use transform="matrix(0.04938271604938272,0,0,0.04938271604938272,24.641975308641978,0)" xlink:href="#I"/><use transform="matrix(0.04938271604938272,0,0,0.04938271604938272,28.543209876543212,0)" xlink:href="#R"/><use transform="matrix(0.04938271604938272,0,0,0.04938271604938272,37.4320987654321,0)" xlink:href="#I"/><use transform="matrix(0.04938271604938272,0,0,0.04938271604938272,41.333333333333336,0)" xlink:href="#J"/><use transform="matrix(0.04938271604938272,0,0,0.04938271604938272,51.20987654320988,0)" xlink:href="#E"/></g><path fill="#635dff" d="M101-234c-31-9-42 10-38 44h38v23H63V0H32v-167H5v-23h27c-7-52 17-82 69-68v24" id="ab"/><g id="y"><use transform="matrix(0.04938271604938272,0,0,0.04938271604938272,0,0)" xlink:href="#J"/><use transform="matrix(0.04938271604938272,0,0,0.04938271604938272,9.876543209876544,0)" xlink:href="#ab"/></g><path fill="#635dff" d="M30-248c87 1 191-15 191 75 0 78-77 80-158 76V0H30v-248zm33 125c57 0 124 11 124-50 0-59-68-47-124-48v98" id="ac"/><g id="z"><use transform="matrix(0.06172839506172839,0,0,0.06172839506172839,0,0)" xlink:href="#ac"/><use transform="matrix(0.06172839506172839,0,0,0.06172839506172839,14.814814814814813,0)" xlink:href="#F"/><use transform="matrix(0.06172839506172839,0,0,0.06172839506172839,22.160493827160494,0)" xlink:href="#J"/><use transform="matrix(0.06172839506172839,0,0,0.06172839506172839,34.50617283950617,0)" xlink:href="#aa"/><use transform="matrix(0.06172839506172839,0,0,0.06172839506172839,45.61728395061728,0)" xlink:href="#D"/><use transform="matrix(0.06172839506172839,0,0,0.06172839506172839,57.962962962962955,0)" xlink:href="#E"/><use transform="matrix(0.06172839506172839,0,0,0.06172839506172839,70.30864197530863,0)" xlink:href="#G"/><use transform="matrix(0.06172839506172839,0,0,0.06172839506172839,82.65432098765432,0)" xlink:href="#U"/><use transform="matrix(0.06172839506172839,0,0,0.06172839506172839,93.76543209876543,0)" xlink:href="#D"/></g><path fill="#635dff" d="M30-248c118-7 216 8 213 122C240-48 200 0 122 0H30v-248zM63-27c89 8 146-16 146-99s-60-101-146-95v194" id="ad"/><g id="A"><use transform="matrix(0.06172839506172839,0,0,0.06172839506172839,0,0)" xlink:href="#ad"/><use transform="matrix(0.06172839506172839,0,0,0.06172839506172839,15.987654320987653,0)" xlink:href="#D"/><use transform="matrix(0.06172839506172839,0,0,0.06172839506172839,28.333333333333332,0)" xlink:href="#H"/><use transform="matrix(0.06172839506172839,0,0,0.06172839506172839,34.50617283950617,0)" xlink:href="#G"/><use transform="matrix(0.06172839506172839,0,0,0.06172839506172839,46.85185185185185,0)" xlink:href="#I"/><use transform="matrix(0.06172839506172839,0,0,0.06172839506172839,51.72839506172839,0)" xlink:href="#Z"/><use transform="matrix(0.06172839506172839,0,0,0.06172839506172839,56.60493827160494,0)" xlink:href="#R"/></g><path fill="#54c45e" d="M185-189c-5-48-123-54-124 2 14 75 158 14 163 119 3 78-121 87-175 55-17-10-28-26-33-46l33-7c5 56 141 63 141-1 0-78-155-14-162-118-5-82 145-84 179-34 5 7 8 16 11 25" id="ae"/><path fill="#54c45e" d="M59-47c-2 24 18 29 38 22v24C64 9 27 4 27-40v-127H5v-23h24l9-43h21v43h35v23H59v120" id="af"/><path fill="#54c45e" d="M141-36C126-15 110 5 73 4 37 3 15-17 15-53c-1-64 63-63 125-63 3-35-9-54-41-54-24 1-41 7-42 31l-33-3c5-37 33-52 76-52 45 0 72 20 72 64v82c-1 20 7 32 28 27v20c-31 9-61-2-59-35zM48-53c0 20 12 33 32 33 41-3 63-29 60-74-43 2-92-5-92 41" id="ag"/><path fill="#54c45e" d="M100-194c63 0 86 42 84 106H49c0 40 14 67 53 68 26 1 43-12 49-29l28 8c-11 28-37 45-77 45C44 4 14-33 15-96c1-61 26-98 85-98zm52 81c6-60-76-77-97-28-3 7-6 17-6 28h103" id="ah"/><path fill="#54c45e" d="M210-169c-67 3-38 105-44 169h-31v-121c0-29-5-50-35-48C34-165 62-65 56 0H25l-1-190h30c1 10-1 24 2 32 10-44 99-50 107 0 11-21 27-35 58-36 85-2 47 119 55 194h-31v-121c0-29-5-49-35-48" id="ai"/><path fill="#54c45e" d="M117-194c89-4 53 116 60 194h-32v-121c0-31-8-49-39-48C34-167 62-67 57 0H25l-1-190h30c1 10-1 24 2 32 11-22 29-35 61-36" id="aj"/><g id="B"><use transform="matrix(0.06172839506172839,0,0,0.06172839506172839,0,0)" xlink:href="#ae"/><use transform="matrix(0.06172839506172839,0,0,0.06172839506172839,14.814814814814813,0)" xlink:href="#af"/><use transform="matrix(0.06172839506172839,0,0,0.06172839506172839,20.98765432098765,0)" xlink:href="#ag"/><use transform="matrix(0.06172839506172839,0,0,0.06172839506172839,33.33333333333333,0)" xlink:href="#af"/><use transform="matrix(0.06172839506172839,0,0,0.06172839506172839,39.50617283950617,0)" xlink:href="#ah"/><use transform="matrix(0.06172839506172839,0,0,0.06172839506172839,51.85185185185185,0)" xlink:href="#ai"/><use transform="matrix(0.06172839506172839,0,0,0.06172839506172839,70.30864197530863,0)" xlink:href="#ah"/><use transform="matrix(0.06172839506172839,0,0,0.06172839506172839,82.65432098765432,0)" xlink:href="#aj"/><use transform="matrix(0.06172839506172839,0,0,0.06172839506172839,95,0)" xlink:href="#af"/></g></defs></g></svg>